# xmcd
#
# Track frame offsets: 
#        150
#        13581
#        27881
#        42081
#        57467
#        72017
#        84697
#        96369
#        110489
#        124579
#
# Disc length: 1799 seconds
#
# Revision: 0
# Processed by: cddbd v1.5.2PL0 Copyright (c) Steve Scherf et al.
# Submitted via: ExactAudioCopy v0.99pb4
#
DISCID=7e07050a
DTITLE=Jackie Moore - Make Me Feel Like A Woman
DYEAR=1975
DGENRE=Soul
TTITLE0=At The Top Of The Hill
TTITLE1=Make Me Feel Like A Woman
TTITLE2=Heart Be Still
TTITLE3=Old Time Sake
TTITLE4=Puttin' It Down To The Way I Feel
TTITLE5=Tired Of Hiding
TTITLE6=Inside Out
TTITLE7=The Bridge That Lies Between Us
TTITLE8=Never Is Forever
TTITLE9=Singing Funky Music Turns Me On
EXTD=
EXTT0=
EXTT1=
EXTT2=
EXTT3=
EXTT4=
EXTT5=
EXTT6=
EXTT7=
EXTT8=
EXTT9=
PLAYORDER=
